<svg class=" pointer-events-none absolute z-0 size-full " width="100%" height="100%" viewBox="0 0 696 316" fill="none" xmlns="http://www.w3.org/2000/svg"><path d="M-380 -189C-380 -189 -312 216 152 343C616 470 684 875 684 875M-373 -197C-373 -197 -305 208 159 335C623 462 691 867 691 867M-366 -205C-366 -205 -298 200 166 327C630 454 698 859 698 859M-359 -213C-359 -213 -291 192 173 319C637 446 705 851 705 851M-352 -221C-352 -221 -284 184 180 311C644 438 712 843 712 843M-345 -229C-345 -229 -277 176 187 303C651 430 719 835 719 835M-338 -237C-338 -237 -270 168 194 295C658 422 726 827 726 827M-331 -245C-331 -245 -263 160 201 287C665 414 733 819 733 819M-324 -253C-324 -253 -256 152 208 279C672 406 740 811 740 811M-317 -261C-317 -261 -249 144 215 271C679 398 747 803 747 803M-310 -269C-310 -269 -242 136 222 263C686 390 754 795 754 795M-303 -277C-303 -277 -235 128 229 255C693 382 761 787 761 787M-296 -285C-296 -285 -228 120 236 247C700 374 768 779 768 779M-289 -293C-289 -293 -221 112 243 239C707 366 775 771 775 771M-282 -301C-282 -301 -214 104 250 231C714 358 782 763 782 763M-275 -309C-275 -309 -207 96 257 223C721 350 789 755 789 755M-268 -317C-268 -317 -200 88 264 215C728 342 796 747 796 747M-261 -325C-261 -325 -193 80 271 207C735 334 803 739 803 739M-254 -333C-254 -333 -186 72 278 199C742 326 810 731 810 731M-247 -341C-247 -341 -179 64 285 191C749 318 817 723 817 723M-240 -349C-240 -349 -172 56 292 183C756 310 824 715 824 715M-233 -357C-233 -357 -165 48 299 175C763 302 831 707 831 707M-226 -365C-226 -365 -158 40 306 167C770 294 838 699 838 699M-219 -373C-219 -373 -151 32 313 159C777 286 845 691 845 691M-212 -381C-212 -381 -144 24 320 151C784 278 852 683 852 683M-205 -389C-205 -389 -137 16 327 143C791 270 859 675 859 675M-198 -397C-198 -397 -130 8 334 135C798 262 866 667 866 667M-191 -405C-191 -405 -123 0 341 127C805 254 873 659 873 659M-184 -413C-184 -413 -116 -8 348 119C812 246 880 651 880 651M-177 -421C-177 -421 -109 -16 355 111C819 238 887 643 887 643M-170 -429C-170 -429 -102 -24 362 103C826 230 894 635 894 635M-163 -437C-163 -437 -95 -32 369 95C833 222 901 627 901 627M-156 -445C-156 -445 -88 -40 376 87C840 214 908 619 908 619M-149 -453C-149 -453 -81 -48 383 79C847 206 915 611 915 611M-142 -461C-142 -461 -74 -56 390 71C854 198 922 603 922 603M-135 -469C-135 -469 -67 -64 397 63C861 190 929 595 929 595M-128 -477C-128 -477 -60 -72 404 55C868 182 936 587 936 587M-121 -485C-121 -485 -53 -80 411 47C875 174 943 579 943 579M-114 -493C-114 -493 -46 -88 418 39C882 166 950 571 950 571M-107 -501C-107 -501 -39 -96 425 31C889 158 957 563 957 563M-100 -509C-100 -509 -32 -104 432 23C896 150 964 555 964 555M-93 -517C-93 -517 -25 -112 439 15C903 142 971 547 971 547M-86 -525C-86 -525 -18 -120 446 7C910 134 978 539 978 539M-79 -533C-79 -533 -11 -128 453 -1C917 126 985 531 985 531M-72 -541C-72 -541 -4 -136 460 -9C924 118 992 523 992 523M-65 -549C-65 -549 3 -144 467 -17C931 110 999 515 999 515M-58 -557C-58 -557 10 -152 474 -25C938 102 1006 507 1006 507M-51 -565C-51 -565 17 -160 481 -33C945 94 1013 499 1013 499M-44 -573C-44 -573 24 -168 488 -41C952 86 1020 491 1020 491M-37 -581C-37 -581 31 -176 495 -49C959 78 1027 483 1027 483M-30 -589C-30 -589 38 -184 502 -57C966 70 1034 475 1034 475M-23 -597C-23 -597 45 -192 509 -65C973 62 1041 467 1041 467M-16 -605C-16 -605 52 -200 516 -73C980 54 1048 459 1048 459M-9 -613C-9 -613 59 -208 523 -81C987 46 1055 451 1055 451M-2 -621C-2 -621 66 -216 530 -89C994 38 1062 443 1062 443M5 -629C5 -629 73 -224 537 -97C1001 30 1069 435 1069 435M12 -637C12 -637 80 -232 544 -105C1008 22 1076 427 1076 427M19 -645C19 -645 87 -240 551 -113C1015 14 1083 419 1083 419" stroke="url(#paint0_radial_242_278)" stroke-opacity="0.05" stroke-width="0.5"></path><path d="M-380 -189C-380 -189 -312 216 152 343C616 470 684 875 684 875" stroke="url(#linearGradient-0)" stroke-opacity="0.4" stroke-width="0.5"></path><path d="M-373 -197C-373 -197 -305 208 159 335C623 462 691 867 691 867" stroke="url(#linearGradient-1)" stroke-opacity="0.4" stroke-width="0.5"></path><path d="M-366 -205C-366 -205 -298 200 166 327C630 454 698 859 698 859" stroke="url(#linearGradient-2)" stroke-opacity="0.4" stroke-width="0.5"></path><path d="M-359 -213C-359 -213 -291 192 173 319C637 446 705 851 705 851" stroke="url(#linearGradient-3)" stroke-opacity="0.4" stroke-width="0.5"></path><path d="M-352 -221C-352 -221 -284 184 180 311C644 438 712 843 712 843" stroke="url(#linearGradient-4)" stroke-opacity="0.4" stroke-width="0.5"></path><path d="M-345 -229C-345 -229 -277 176 187 303C651 430 719 835 719 835" stroke="url(#linearGradient-5)" stroke-opacity="0.4" stroke-width="0.5"></path><path d="M-338 -237C-338 -237 -270 168 194 295C658 422 726 827 726 827" stroke="url(#linearGradient-6)" stroke-opacity="0.4" stroke-width="0.5"></path><path d="M-331 -245C-331 -245 -263 160 201 287C665 414 733 819 733 819" stroke="url(#linearGradient-7)" stroke-opacity="0.4" stroke-width="0.5"></path><path d="M-324 -253C-324 -253 -256 152 208 279C672 406 740 811 740 811" stroke="url(#linearGradient-8)" stroke-opacity="0.4" stroke-width="0.5"></path><path d="M-317 -261C-317 -261 -249 144 215 271C679 398 747 803 747 803" stroke="url(#linearGradient-9)" stroke-opacity="0.4" stroke-width="0.5"></path><path d="M-310 -269C-310 -269 -242 136 222 263C686 390 754 795 754 795" stroke="url(#linearGradient-10)" stroke-opacity="0.4" stroke-width="0.5"></path><path d="M-303 -277C-303 -277 -235 128 229 255C693 382 761 787 761 787" stroke="url(#linearGradient-11)" stroke-opacity="0.4" stroke-width="0.5"></path><path d="M-296 -285C-296 -285 -228 120 236 247C700 374 768 779 768 779" stroke="url(#linearGradient-12)" stroke-opacity="0.4" stroke-width="0.5"></path><path d="M-289 -293C-289 -293 -221 112 243 239C707 366 775 771 775 771" stroke="url(#linearGradient-13)" stroke-opacity="0.4" stroke-width="0.5"></path><path d="M-282 -301C-282 -301 -214 104 250 231C714 358 782 763 782 763" stroke="url(#linearGradient-14)" stroke-opacity="0.4" stroke-width="0.5"></path><path d="M-275 -309C-275 -309 -207 96 257 223C721 350 789 755 789 755" stroke="url(#linearGradient-15)" stroke-opacity="0.4" stroke-width="0.5"></path><path d="M-268 -317C-268 -317 -200 88 264 215C728 342 796 747 796 747" stroke="url(#linearGradient-16)" stroke-opacity="0.4" stroke-width="0.5"></path><path d="M-261 -325C-261 -325 -193 80 271 207C735 334 803 739 803 739" stroke="url(#linearGradient-17)" stroke-opacity="0.4" stroke-width="0.5"></path><path d="M-254 -333C-254 -333 -186 72 278 199C742 326 810 731 810 731" stroke="url(#linearGradient-18)" stroke-opacity="0.4" stroke-width="0.5"></path><path d="M-247 -341C-247 -341 -179 64 285 191C749 318 817 723 817 723" stroke="url(#linearGradient-19)" stroke-opacity="0.4" stroke-width="0.5"></path><path d="M-240 -349C-240 -349 -172 56 292 183C756 310 824 715 824 715" stroke="url(#linearGradient-20)" stroke-opacity="0.4" stroke-width="0.5"></path><path d="M-233 -357C-233 -357 -165 48 299 175C763 302 831 707 831 707" stroke="url(#linearGradient-21)" stroke-opacity="0.4" stroke-width="0.5"></path><path d="M-226 -365C-226 -365 -158 40 306 167C770 294 838 699 838 699" stroke="url(#linearGradient-22)" stroke-opacity="0.4" stroke-width="0.5"></path><path d="M-219 -373C-219 -373 -151 32 313 159C777 286 845 691 845 691" stroke="url(#linearGradient-23)" stroke-opacity="0.4" stroke-width="0.5"></path><path d="M-212 -381C-212 -381 -144 24 320 151C784 278 852 683 852 683" stroke="url(#linearGradient-24)" stroke-opacity="0.4" stroke-width="0.5"></path><path d="M-205 -389C-205 -389 -137 16 327 143C791 270 859 675 859 675" stroke="url(#linearGradient-25)" stroke-opacity="0.4" stroke-width="0.5"></path><path d="M-198 -397C-198 -397 -130 8 334 135C798 262 866 667 866 667" stroke="url(#linearGradient-26)" stroke-opacity="0.4" stroke-width="0.5"></path><path d="M-191 -405C-191 -405 -123 0 341 127C805 254 873 659 873 659" stroke="url(#linearGradient-27)" stroke-opacity="0.4" stroke-width="0.5"></path><path d="M-184 -413C-184 -413 -116 -8 348 119C812 246 880 651 880 651" stroke="url(#linearGradient-28)" stroke-opacity="0.4" stroke-width="0.5"></path><path d="M-177 -421C-177 -421 -109 -16 355 111C819 238 887 643 887 643" stroke="url(#linearGradient-29)" stroke-opacity="0.4" stroke-width="0.5"></path><path d="M-170 -429C-170 -429 -102 -24 362 103C826 230 894 635 894 635" stroke="url(#linearGradient-30)" stroke-opacity="0.4" stroke-width="0.5"></path><path d="M-163 -437C-163 -437 -95 -32 369 95C833 222 901 627 901 627" stroke="url(#linearGradient-31)" stroke-opacity="0.4" stroke-width="0.5"></path><path d="M-156 -445C-156 -445 -88 -40 376 87C840 214 908 619 908 619" stroke="url(#linearGradient-32)" stroke-opacity="0.4" stroke-width="0.5"></path><path d="M-149 -453C-149 -453 -81 -48 383 79C847 206 915 611 915 611" stroke="url(#linearGradient-33)" stroke-opacity="0.4" stroke-width="0.5"></path><path d="M-142 -461C-142 -461 -74 -56 390 71C854 198 922 603 922 603" stroke="url(#linearGradient-34)" stroke-opacity="0.4" stroke-width="0.5"></path><path d="M-135 -469C-135 -469 -67 -64 397 63C861 190 929 595 929 595" stroke="url(#linearGradient-35)" stroke-opacity="0.4" stroke-width="0.5"></path><path d="M-128 -477C-128 -477 -60 -72 404 55C868 182 936 587 936 587" stroke="url(#linearGradient-36)" stroke-opacity="0.4" stroke-width="0.5"></path><path d="M-121 -485C-121 -485 -53 -80 411 47C875 174 943 579 943 579" stroke="url(#linearGradient-37)" stroke-opacity="0.4" stroke-width="0.5"></path><path d="M-114 -493C-114 -493 -46 -88 418 39C882 166 950 571 950 571" stroke="url(#linearGradient-38)" stroke-opacity="0.4" stroke-width="0.5"></path><path d="M-107 -501C-107 -501 -39 -96 425 31C889 158 957 563 957 563" stroke="url(#linearGradient-39)" stroke-opacity="0.4" stroke-width="0.5"></path><path d="M-100 -509C-100 -509 -32 -104 432 23C896 150 964 555 964 555" stroke="url(#linearGradient-40)" stroke-opacity="0.4" stroke-width="0.5"></path><path d="M-93 -517C-93 -517 -25 -112 439 15C903 142 971 547 971 547" stroke="url(#linearGradient-41)" stroke-opacity="0.4" stroke-width="0.5"></path><path d="M-86 -525C-86 -525 -18 -120 446 7C910 134 978 539 978 539" stroke="url(#linearGradient-42)" stroke-opacity="0.4" stroke-width="0.5"></path><path d="M-79 -533C-79 -533 -11 -128 453 -1C917 126 985 531 985 531" stroke="url(#linearGradient-43)" stroke-opacity="0.4" stroke-width="0.5"></path><path d="M-72 -541C-72 -541 -4 -136 460 -9C924 118 992 523 992 523" stroke="url(#linearGradient-44)" stroke-opacity="0.4" stroke-width="0.5"></path><path d="M-65 -549C-65 -549 3 -144 467 -17C931 110 999 515 999 515" stroke="url(#linearGradient-45)" stroke-opacity="0.4" stroke-width="0.5"></path><path d="M-58 -557C-58 -557 10 -152 474 -25C938 102 1006 507 1006 507" stroke="url(#linearGradient-46)" stroke-opacity="0.4" stroke-width="0.5"></path><path d="M-51 -565C-51 -565 17 -160 481 -33C945 94 1013 499 1013 499" stroke="url(#linearGradient-47)" stroke-opacity="0.4" stroke-width="0.5"></path><path d="M-44 -573C-44 -573 24 -168 488 -41C952 86 1020 491 1020 491" stroke="url(#linearGradient-48)" stroke-opacity="0.4" stroke-width="0.5"></path><path d="M-37 -581C-37 -581 31 -176 495 -49C959 78 1027 483 1027 483" stroke="url(#linearGradient-49)" stroke-opacity="0.4" stroke-width="0.5"></path><defs><linearGradient id="linearGradient-0" x1="32.63995%" x2="31.00795%" y1="32.63995%" y2="32.11805%"><stop stop-color="#18CCFC" stop-opacity="0"></stop><stop stop-color="#18CCFC"></stop><stop offset="32.5%" stop-color="#6344F5"></stop><stop offset="100%" stop-color="#AE48FF" stop-opacity="0"></stop></linearGradient><linearGradient id="linearGradient-1" x1="77.21463%" x2="73.3539%" y1="77.21463%" y2="71.82082%"><stop stop-color="#18CCFC" stop-opacity="0"></stop><stop stop-color="#18CCFC"></stop><stop offset="32.5%" stop-color="#6344F5"></stop><stop offset="100%" stop-color="#AE48FF" stop-opacity="0"></stop></linearGradient><linearGradient id="linearGradient-2" x1="98.35804%" x2="93.44014%" y1="98.35804%" y2="97.05002%"><stop stop-color="#18CCFC" stop-opacity="0"></stop><stop stop-color="#18CCFC"></stop><stop offset="32.5%" stop-color="#6344F5"></stop><stop offset="100%" stop-color="#AE48FF" stop-opacity="0"></stop></linearGradient><linearGradient id="linearGradient-3" x1="7.53674%" x2="7.1599%" y1="7.53674%" y2="7.07769%"><stop stop-color="#18CCFC" stop-opacity="0"></stop><stop stop-color="#18CCFC"></stop><stop offset="32.5%" stop-color="#6344F5"></stop><stop offset="100%" stop-color="#AE48FF" stop-opacity="0"></stop></linearGradient><linearGradient id="linearGradient-4" x1="17.50447%" x2="16.62925%" y1="17.50447%" y2="17.03304%"><stop stop-color="#18CCFC" stop-opacity="0"></stop><stop stop-color="#18CCFC"></stop><stop offset="32.5%" stop-color="#6344F5"></stop><stop offset="100%" stop-color="#AE48FF" stop-opacity="0"></stop></linearGradient><linearGradient id="linearGradient-5" x1="8.41827%" x2="7.99736%" y1="8.41827%" y2="8.42934%"><stop stop-color="#18CCFC" stop-opacity="0"></stop><stop stop-color="#18CCFC"></stop><stop offset="32.5%" stop-color="#6344F5"></stop><stop offset="100%" stop-color="#AE48FF" stop-opacity="0"></stop></linearGradient><linearGradient id="linearGradient-6" x1="53.54959%" x2="50.87211%" y1="53.54959%" y2="51.88166%"><stop stop-color="#18CCFC" stop-opacity="0"></stop><stop stop-color="#18CCFC"></stop><stop offset="32.5%" stop-color="#6344F5"></stop><stop offset="100%" stop-color="#AE48FF" stop-opacity="0"></stop></linearGradient><linearGradient id="linearGradient-7" x1="24.62288%" x2="23.39174%" y1="24.62288%" y2="23.47822%"><stop stop-color="#18CCFC" stop-opacity="0"></stop><stop stop-color="#18CCFC"></stop><stop offset="32.5%" stop-color="#6344F5"></stop><stop offset="100%" stop-color="#AE48FF" stop-opacity="0"></stop></linearGradient><linearGradient id="linearGradient-8" x1="2.07715%" x2="1.97329%" y1="2.07715%" y2="1.93872%"><stop stop-color="#18CCFC" stop-opacity="0"></stop><stop stop-color="#18CCFC"></stop><stop offset="32.5%" stop-color="#6344F5"></stop><stop offset="100%" stop-color="#AE48FF" stop-opacity="0"></stop></linearGradient><linearGradient id="linearGradient-9" x1="15.43318%" x2="14.66152%" y1="15.43318%" y2="15.19738%"><stop stop-color="#18CCFC" stop-opacity="0"></stop><stop stop-color="#18CCFC"></stop><stop offset="32.5%" stop-color="#6344F5"></stop><stop offset="100%" stop-color="#AE48FF" stop-opacity="0"></stop></linearGradient><linearGradient id="linearGradient-10" x1="44.91748%" x2="42.67161%" y1="44.91748%" y2="43.54799%"><stop stop-color="#18CCFC" stop-opacity="0"></stop><stop stop-color="#18CCFC"></stop><stop offset="32.5%" stop-color="#6344F5"></stop><stop offset="100%" stop-color="#AE48FF" stop-opacity="0"></stop></linearGradient><linearGradient id="linearGradient-11" x1="12.79208%" x2="12.15248%" y1="12.79208%" y2="12.40994%"><stop stop-color="#18CCFC" stop-opacity="0"></stop><stop stop-color="#18CCFC"></stop><stop offset="32.5%" stop-color="#6344F5"></stop><stop offset="100%" stop-color="#AE48FF" stop-opacity="0"></stop></linearGradient><linearGradient id="linearGradient-12" x1="37.34295%" x2="35.47581%" y1="37.34295%" y2="37.62679%"><stop stop-color="#18CCFC" stop-opacity="0"></stop><stop stop-color="#18CCFC"></stop><stop offset="32.5%" stop-color="#6344F5"></stop><stop offset="100%" stop-color="#AE48FF" stop-opacity="0"></stop></linearGradient><linearGradient id="linearGradient-13" x1="59.93834%" x2="56.94143%" y1="59.93834%" y2="59.067%"><stop stop-color="#18CCFC" stop-opacity="0"></stop><stop stop-color="#18CCFC"></stop><stop offset="32.5%" stop-color="#6344F5"></stop><stop offset="100%" stop-color="#AE48FF" stop-opacity="0"></stop></linearGradient><linearGradient id="linearGradient-14" x1="51.79409%" x2="49.20439%" y1="51.79409%" y2="50.04764%"><stop stop-color="#18CCFC" stop-opacity="0"></stop><stop stop-color="#18CCFC"></stop><stop offset="32.5%" stop-color="#6344F5"></stop><stop offset="100%" stop-color="#AE48FF" stop-opacity="0"></stop></linearGradient><linearGradient id="linearGradient-15" x1="85.11%" x2="80.8545%" y1="85.11%" y2="85.03832%"><stop stop-color="#18CCFC" stop-opacity="0"></stop><stop stop-color="#18CCFC"></stop><stop offset="32.5%" stop-color="#6344F5"></stop><stop offset="100%" stop-color="#AE48FF" stop-opacity="0"></stop></linearGradient><linearGradient id="linearGradient-16" x1="0.00302%" x2="0.00286%" y1="0.00302%" y2="0.003%"><stop stop-color="#18CCFC" stop-opacity="0"></stop><stop stop-color="#18CCFC"></stop><stop offset="32.5%" stop-color="#6344F5"></stop><stop offset="100%" stop-color="#AE48FF" stop-opacity="0"></stop></linearGradient><linearGradient id="linearGradient-17" x1="68.3937%" x2="64.97402%" y1="68.3937%" y2="64.97247%"><stop stop-color="#18CCFC" stop-opacity="0"></stop><stop stop-color="#18CCFC"></stop><stop offset="32.5%" stop-color="#6344F5"></stop><stop offset="100%" stop-color="#AE48FF" stop-opacity="0"></stop></linearGradient><linearGradient id="linearGradient-18" x1="0.12152%" x2="0.11544%" y1="0.12152%" y2="0.11823%"><stop stop-color="#18CCFC" stop-opacity="0"></stop><stop stop-color="#18CCFC"></stop><stop offset="32.5%" stop-color="#6344F5"></stop><stop offset="100%" stop-color="#AE48FF" stop-opacity="0"></stop></linearGradient><linearGradient id="linearGradient-19" x1="61.80195%" x2="58.71185%" y1="61.80195%" y2="58.92983%"><stop stop-color="#18CCFC" stop-opacity="0"></stop><stop stop-color="#18CCFC"></stop><stop offset="32.5%" stop-color="#6344F5"></stop><stop offset="100%" stop-color="#AE48FF" stop-opacity="0"></stop></linearGradient><linearGradient id="linearGradient-20" x1="26.69963%" x2="25.36464%" y1="26.69963%" y2="25.00746%"><stop stop-color="#18CCFC" stop-opacity="0"></stop><stop stop-color="#18CCFC"></stop><stop offset="32.5%" stop-color="#6344F5"></stop><stop offset="100%" stop-color="#AE48FF" stop-opacity="0"></stop></linearGradient><linearGradient id="linearGradient-21" x1="0.69879%" x2="0.66385%" y1="0.69879%" y2="0.68259%"><stop stop-color="#18CCFC" stop-opacity="0"></stop><stop stop-color="#18CCFC"></stop><stop offset="32.5%" stop-color="#6344F5"></stop><stop offset="100%" stop-color="#AE48FF" stop-opacity="0"></stop></linearGradient><linearGradient id="linearGradient-22" x1="54.57195%" x2="51.84335%" y1="54.57195%" y2="51.32603%"><stop stop-color="#18CCFC" stop-opacity="0"></stop><stop stop-color="#18CCFC"></stop><stop offset="32.5%" stop-color="#6344F5"></stop><stop offset="100%" stop-color="#AE48FF" stop-opacity="0"></stop></linearGradient><linearGradient id="linearGradient-23" x1="66.6667%" x2="63.33337%" y1="66.6667%" y2="64.41501%"><stop stop-color="#18CCFC" stop-opacity="0"></stop><stop stop-color="#18CCFC"></stop><stop offset="32.5%" stop-color="#6344F5"></stop><stop offset="100%" stop-color="#AE48FF" stop-opacity="0"></stop></linearGradient><linearGradient id="linearGradient-24" x1="64.35647%" x2="61.13865%" y1="64.35647%" y2="62.03224%"><stop stop-color="#18CCFC" stop-opacity="0"></stop><stop stop-color="#18CCFC"></stop><stop offset="32.5%" stop-color="#6344F5"></stop><stop offset="100%" stop-color="#AE48FF" stop-opacity="0"></stop></linearGradient><linearGradient id="linearGradient-25" x1="90.74916%" x2="86.2117%" y1="90.74916%" y2="86.25646%"><stop stop-color="#18CCFC" stop-opacity="0"></stop><stop stop-color="#18CCFC"></stop><stop offset="32.5%" stop-color="#6344F5"></stop><stop offset="100%" stop-color="#AE48FF" stop-opacity="0"></stop></linearGradient><linearGradient id="linearGradient-26" x1="28.89059%" x2="27.44606%" y1="28.89059%" y2="27.24897%"><stop stop-color="#18CCFC" stop-opacity="0"></stop><stop stop-color="#18CCFC"></stop><stop offset="32.5%" stop-color="#6344F5"></stop><stop offset="100%" stop-color="#AE48FF" stop-opacity="0"></stop></linearGradient><linearGradient id="linearGradient-27" x1="98.21119%" x2="93.30063%" y1="98.21119%" y2="95.5227%"><stop stop-color="#18CCFC" stop-opacity="0"></stop><stop stop-color="#18CCFC"></stop><stop offset="32.5%" stop-color="#6344F5"></stop><stop offset="100%" stop-color="#AE48FF" stop-opacity="0"></stop></linearGradient><linearGradient id="linearGradient-28" x1="15.43318%" x2="14.66152%" y1="15.43318%" y2="14.45451%"><stop stop-color="#18CCFC" stop-opacity="0"></stop><stop stop-color="#18CCFC"></stop><stop offset="32.5%" stop-color="#6344F5"></stop><stop offset="100%" stop-color="#AE48FF" stop-opacity="0"></stop></linearGradient><linearGradient id="linearGradient-29" x1="97.89984%" x2="93.00484%" y1="97.89984%" y2="98.84419%"><stop stop-color="#18CCFC" stop-opacity="0"></stop><stop stop-color="#18CCFC"></stop><stop offset="32.5%" stop-color="#6344F5"></stop><stop offset="100%" stop-color="#AE48FF" stop-opacity="0"></stop></linearGradient><linearGradient id="linearGradient-30" x1="27.02849%" x2="25.67707%" y1="27.02849%" y2="25.28532%"><stop stop-color="#18CCFC" stop-opacity="0"></stop><stop stop-color="#18CCFC"></stop><stop offset="32.5%" stop-color="#6344F5"></stop><stop offset="100%" stop-color="#AE48FF" stop-opacity="0"></stop></linearGradient><linearGradient id="linearGradient-31" x1="58.56819%" x2="55.63978%" y1="58.56819%" y2="55.1425%"><stop stop-color="#18CCFC" stop-opacity="0"></stop><stop stop-color="#18CCFC"></stop><stop offset="32.5%" stop-color="#6344F5"></stop><stop offset="100%" stop-color="#AE48FF" stop-opacity="0"></stop></linearGradient><linearGradient id="linearGradient-32" x1="1.34736%" x2="1.27999%" y1="1.34736%" y2="1.34016%"><stop stop-color="#18CCFC" stop-opacity="0"></stop><stop stop-color="#18CCFC"></stop><stop offset="32.5%" stop-color="#6344F5"></stop><stop offset="100%" stop-color="#AE48FF" stop-opacity="0"></stop></linearGradient><linearGradient id="linearGradient-33" x1="2.55975%" x2="2.43177%" y1="2.55975%" y2="2.44843%"><stop stop-color="#18CCFC" stop-opacity="0"></stop><stop stop-color="#18CCFC"></stop><stop offset="32.5%" stop-color="#6344F5"></stop><stop offset="100%" stop-color="#AE48FF" stop-opacity="0"></stop></linearGradient><linearGradient id="linearGradient-34" x1="11.88873%" x2="11.29429%" y1="11.88873%" y2="11.89655%"><stop stop-color="#18CCFC" stop-opacity="0"></stop><stop stop-color="#18CCFC"></stop><stop offset="32.5%" stop-color="#6344F5"></stop><stop offset="100%" stop-color="#AE48FF" stop-opacity="0"></stop></linearGradient><linearGradient id="linearGradient-35" x1="2.43472%" x2="2.31298%" y1="2.43472%" y2="2.3976%"><stop stop-color="#18CCFC" stop-opacity="0"></stop><stop stop-color="#18CCFC"></stop><stop offset="32.5%" stop-color="#6344F5"></stop><stop offset="100%" stop-color="#AE48FF" stop-opacity="0"></stop></linearGradient><linearGradient id="linearGradient-36" x1="80.33273%" x2="76.31609%" y1="80.33273%" y2="76.02792%"><stop stop-color="#18CCFC" stop-opacity="0"></stop><stop stop-color="#18CCFC"></stop><stop offset="32.5%" stop-color="#6344F5"></stop><stop offset="100%" stop-color="#AE48FF" stop-opacity="0"></stop></linearGradient><linearGradient id="linearGradient-37" x1="17.96459%" x2="17.06636%" y1="17.96459%" y2="16.94978%"><stop stop-color="#18CCFC" stop-opacity="0"></stop><stop stop-color="#18CCFC"></stop><stop offset="32.5%" stop-color="#6344F5"></stop><stop offset="100%" stop-color="#AE48FF" stop-opacity="0"></stop></linearGradient><linearGradient id="linearGradient-38" x1="10.63072%" x2="10.09918%" y1="10.63072%" y2="10.44935%"><stop stop-color="#18CCFC" stop-opacity="0"></stop><stop stop-color="#18CCFC"></stop><stop offset="32.5%" stop-color="#6344F5"></stop><stop offset="100%" stop-color="#AE48FF" stop-opacity="0"></stop></linearGradient><linearGradient id="linearGradient-39" x1="51.57448%" x2="48.99575%" y1="51.57448%" y2="47.96843%"><stop stop-color="#18CCFC" stop-opacity="0"></stop><stop stop-color="#18CCFC"></stop><stop offset="32.5%" stop-color="#6344F5"></stop><stop offset="100%" stop-color="#AE48FF" stop-opacity="0"></stop></linearGradient><linearGradient id="linearGradient-40" x1="36.91671%" x2="35.07087%" y1="36.91671%" y2="36.98557%"><stop stop-color="#18CCFC" stop-opacity="0"></stop><stop stop-color="#18CCFC"></stop><stop offset="32.5%" stop-color="#6344F5"></stop><stop offset="100%" stop-color="#AE48FF" stop-opacity="0"></stop></linearGradient><linearGradient id="linearGradient-41" x1="92.90839%" x2="88.26297%" y1="92.90839%" y2="88.98606%"><stop stop-color="#18CCFC" stop-opacity="0"></stop><stop stop-color="#18CCFC"></stop><stop offset="32.5%" stop-color="#6344F5"></stop><stop offset="100%" stop-color="#AE48FF" stop-opacity="0"></stop></linearGradient><linearGradient id="linearGradient-42" x1="49.52393%" x2="47.04774%" y1="49.52393%" y2="49.77971%"><stop stop-color="#18CCFC" stop-opacity="0"></stop><stop stop-color="#18CCFC"></stop><stop offset="32.5%" stop-color="#6344F5"></stop><stop offset="100%" stop-color="#AE48FF" stop-opacity="0"></stop></linearGradient><linearGradient id="linearGradient-43" x1="59.07372%" x2="56.12004%" y1="59.07372%" y2="55.03795%"><stop stop-color="#18CCFC" stop-opacity="0"></stop><stop stop-color="#18CCFC"></stop><stop offset="32.5%" stop-color="#6344F5"></stop><stop offset="100%" stop-color="#AE48FF" stop-opacity="0"></stop></linearGradient><linearGradient id="linearGradient-44" x1="9.20621%" x2="8.7459%" y1="9.20621%" y2="8.95683%"><stop stop-color="#18CCFC" stop-opacity="0"></stop><stop stop-color="#18CCFC"></stop><stop offset="32.5%" stop-color="#6344F5"></stop><stop offset="100%" stop-color="#AE48FF" stop-opacity="0"></stop></linearGradient><linearGradient id="linearGradient-45" x1="7.05171%" x2="6.69913%" y1="7.05171%" y2="6.69698%"><stop stop-color="#18CCFC" stop-opacity="0"></stop><stop stop-color="#18CCFC"></stop><stop offset="32.5%" stop-color="#6344F5"></stop><stop offset="100%" stop-color="#AE48FF" stop-opacity="0"></stop></linearGradient><linearGradient id="linearGradient-46" x1="57.91704%" x2="55.02119%" y1="57.91704%" y2="57.90352%"><stop stop-color="#18CCFC" stop-opacity="0"></stop><stop stop-color="#18CCFC"></stop><stop offset="32.5%" stop-color="#6344F5"></stop><stop offset="100%" stop-color="#AE48FF" stop-opacity="0"></stop></linearGradient><linearGradient id="linearGradient-47" x1="8.9844%" x2="8.53518%" y1="8.9844%" y2="8.41527%"><stop stop-color="#18CCFC" stop-opacity="0"></stop><stop stop-color="#18CCFC"></stop><stop offset="32.5%" stop-color="#6344F5"></stop><stop offset="100%" stop-color="#AE48FF" stop-opacity="0"></stop></linearGradient><linearGradient id="linearGradient-48" x1="99.76794%" x2="94.77955%" y1="99.76794%" y2="94.93987%"><stop stop-color="#18CCFC" stop-opacity="0"></stop><stop stop-color="#18CCFC"></stop><stop offset="32.5%" stop-color="#6344F5"></stop><stop offset="100%" stop-color="#AE48FF" stop-opacity="0"></stop></linearGradient><linearGradient id="linearGradient-49" x1="44.4074%" x2="42.18703%" y1="44.4074%" y2="41.53394%"><stop stop-color="#18CCFC" stop-opacity="0"></stop><stop stop-color="#18CCFC"></stop><stop offset="32.5%" stop-color="#6344F5"></stop><stop offset="100%" stop-color="#AE48FF" stop-opacity="0"></stop></linearGradient><radialGradient id="paint0_radial_242_278" cx="0" cy="0" r="1" gradientUnits="userSpaceOnUse" gradientTransform="translate(352 34) rotate(90) scale(555 1560.62)"><stop offset="0.0666667" stop-color="var(--neutral-300)"></stop><stop offset="0.243243" stop-color="var(--neutral-300)"></stop><stop offset="0.43594" stop-color="white" stop-opacity="0"></stop></radialGradient></defs></svg>